<svg xmlns="http://www.w3.org/2000/svg" width="1200" height="620" viewBox="0 0 1200 620" font-family="Inter,Segoe UI,Arial,sans-serif">
<rect width="1200" height="620" fill="#ffffff"/>
<text x="70" y="28" font-size="20" font-weight="700" fill="#111827">JS Engine Benchmark (mean ms, lower is better)</text>
<line x1="70" y1="500.00" x2="1170" y2="500.00" stroke="#e5e7eb" stroke-width="1"/>
<text x="62" y="504.00" text-anchor="end" font-size="11" fill="#6b7280">0.0ms</text>
<line x1="70" y1="410.00" x2="1170" y2="410.00" stroke="#e5e7eb" stroke-width="1"/>
<text x="62" y="414.00" text-anchor="end" font-size="11" fill="#6b7280">68.2ms</text>
<line x1="70" y1="320.00" x2="1170" y2="320.00" stroke="#e5e7eb" stroke-width="1"/>
<text x="62" y="324.00" text-anchor="end" font-size="11" fill="#6b7280">136.5ms</text>
<line x1="70" y1="230.00" x2="1170" y2="230.00" stroke="#e5e7eb" stroke-width="1"/>
<text x="62" y="234.00" text-anchor="end" font-size="11" fill="#6b7280">204.7ms</text>
<line x1="70" y1="140.00" x2="1170" y2="140.00" stroke="#e5e7eb" stroke-width="1"/>
<text x="62" y="144.00" text-anchor="end" font-size="11" fill="#6b7280">272.9ms</text>
<line x1="70" y1="50.00" x2="1170" y2="50.00" stroke="#e5e7eb" stroke-width="1"/>
<text x="62" y="54.00" text-anchor="end" font-size="11" fill="#6b7280">341.2ms</text>
<rect x="90.00" y="361.26" width="45.00" height="138.74" fill="#2563eb" rx="3"/>
<rect x="140.00" y="298.88" width="45.00" height="201.12" fill="#16a34a" rx="3"/>
<rect x="190.00" y="468.91" width="45.00" height="31.09" fill="#d97706" rx="3"/>
<rect x="240.00" y="498.30" width="45.00" height="1.70" fill="#dc2626" rx="3"/>
<text x="207.50" y="524" text-anchor="middle" font-size="11" fill="#111827">arith-loop</text>
<rect x="365.00" y="465.01" width="45.00" height="34.99" fill="#2563eb" rx="3"/>
<rect x="415.00" y="475.54" width="45.00" height="24.46" fill="#16a34a" rx="3"/>
<rect x="465.00" y="494.72" width="45.00" height="5.28" fill="#d97706" rx="3"/>
<rect x="515.00" y="499.35" width="45.00" height="0.65" fill="#dc2626" rx="3"/>
<text x="482.50" y="524" text-anchor="middle" font-size="11" fill="#111827">fib-iterative</text>
<rect x="640.00" y="294.37" width="45.00" height="205.63" fill="#2563eb" rx="3"/>
<rect x="690.00" y="50.00" width="45.00" height="450.00" fill="#16a34a" rx="3"/>
<rect x="740.00" y="469.10" width="45.00" height="30.90" fill="#d97706" rx="3"/>
<rect x="790.00" y="495.64" width="45.00" height="4.36" fill="#dc2626" rx="3"/>
<text x="757.50" y="524" text-anchor="middle" font-size="11" fill="#111827">array-sum</text>
<rect x="915.00" y="493.47" width="45.00" height="6.53" fill="#2563eb" rx="3"/>
<rect x="965.00" y="477.78" width="45.00" height="22.22" fill="#16a34a" rx="3"/>
<rect x="1015.00" y="494.72" width="45.00" height="5.28" fill="#d97706" rx="3"/>
<rect x="1065.00" y="499.53" width="45.00" height="0.47" fill="#dc2626" rx="3"/>
<text x="1032.50" y="524" text-anchor="middle" font-size="11" fill="#111827">json-roundtrip</text>
<line x1="70" y1="500" x2="1170" y2="500" stroke="#111827" stroke-width="1.2"/>
<line x1="70" y1="50" x2="70" y2="500" stroke="#111827" stroke-width="1.2"/>
<rect x="849.00" y="12" width="12" height="12" fill="#2563eb" rx="2"/>
<text x="866.00" y="22" font-size="12" fill="#374151">qjs-rs</text>
<rect x="920.00" y="12" width="12" height="12" fill="#16a34a" rx="2"/>
<text x="937.00" y="22" font-size="12" fill="#374151">boa-engine</text>
<rect x="1019.00" y="12" width="12" height="12" fill="#d97706" rx="2"/>
<text x="1036.00" y="22" font-size="12" fill="#374151">quickjs-c</text>
<rect x="1111.00" y="12" width="12" height="12" fill="#dc2626" rx="2"/>
<text x="1128.00" y="22" font-size="12" fill="#374151">nodejs</text>
</svg>